<svg width="512" height="512" viewBox="0 0 512 512" fill="none" xmlns="http://www.w3.org/2000/svg">
<path fill-rule="evenodd" clip-rule="evenodd" d="M281.777 483.22C420.172 483.22 508 398.054 508 256.11C508 114.166 420.172 29 280.003 29H112.009C109.247 29 107.009 31.2386 107.009 34V137.813C107.009 138.919 106.111 139.815 105.005 139.813L77.8249 139.762C64.0277 139.737 52.8221 150.901 52.7966 164.698C52.7711 178.495 63.9354 189.701 77.7326 189.727L111.999 189.79L207.839 189.967L207.922 189.967C221.681 190.037 232.8 201.225 232.775 214.995C232.749 228.792 221.544 239.956 207.747 239.931L112.018 239.754L111.979 239.754L52.9554 239.645C39.1582 239.62 27.9526 250.784 27.9271 264.581C27.9016 278.378 39.0658 289.584 52.863 289.609L111.999 289.718L255.716 289.984L255.842 289.984C269.581 290.077 280.678 301.257 280.652 315.012C280.627 328.809 269.421 339.973 255.624 339.948L112.018 339.683C112.011 339.683 112.003 339.683 111.996 339.683L28.0283 339.527C14.2311 339.502 3.02554 350.666 3.00004 364.463C2.97454 378.26 14.1387 389.466 27.9359 389.492L105.012 389.634C106.115 389.636 107.009 390.531 107.009 391.634V478.22C107.009 480.982 109.247 483.22 112.009 483.22H281.777Z" fill="#3740FF"/>
</svg>
